<svg width="473" height="160" viewBox="0 0 473 160" fill="none" xmlns="http://www.w3.org/2000/svg">
<path d="M0 0H473V160H0V0Z" fill="#FF9800"/>
<g filter="url(#filter0_d_24420_455)">
<path d="M77.9486 66.7493C76.4801 65.2017 74.0523 64.4219 70.6712 64.4219H46.9914C46.1091 64.4219 45.665 64.904 45.665 65.791V94.5063C45.665 95.173 45.9966 95.5064 46.6954 95.5064H51.4384C52.1016 95.5064 52.4332 95.173 52.4332 94.5063V86.006H70.6653C74.0464 86.006 76.4742 85.2322 77.9427 83.6786C79.4112 82.1606 80.1455 79.8689 80.1455 76.8747V73.5829C80.1455 70.5531 79.4112 68.297 77.9427 66.7493H77.9486ZM73.4247 76.208C73.4247 77.5414 73.0931 78.4998 72.5069 79.1665C71.8851 79.8332 70.8133 80.1249 69.3093 80.1249H52.4332V71.1067C52.4332 70.7376 52.6168 70.5531 52.9839 70.5531H69.3093C70.8192 70.5531 71.8792 70.8864 72.5069 71.5114C73.0931 72.1781 73.4247 73.1722 73.4247 74.5056V76.208Z" fill="white"/>
<path d="M129.731 94.4648L115.099 67.815C114.365 66.4816 113.631 65.5946 112.855 65.1184C112.085 64.6779 111.162 64.416 110.025 64.416H107.455C106.501 64.416 105.69 64.672 104.956 65.1184C104.257 65.6006 103.558 66.4875 102.824 67.815L88.3404 94.4648C88.1924 94.7624 88.1569 95.0184 88.2338 95.2029C88.3108 95.3874 88.5299 95.5005 88.9326 95.5005H94.6704C95.1086 95.5005 95.4817 95.2803 95.6652 94.9112L97.1337 92.1373L98.7148 89.1789L103.493 80.2738L108.42 71.0353C108.527 70.8508 108.716 70.7377 108.9 70.7377H109.154C109.373 70.7377 109.521 70.8448 109.669 71.0353L114.489 79.9821L119.452 89.1848L121.068 92.1433L122.578 94.9172C122.762 95.2862 123.093 95.5065 123.608 95.5065H129.198C129.565 95.5065 129.784 95.3993 129.861 95.2088C129.938 95.0243 129.897 94.7684 129.755 94.4707H129.749L129.731 94.4648Z" fill="white"/>
<path d="M177.713 94.3934L170.175 84.9704C172.49 84.5597 174.183 83.6013 175.214 82.1251C176.244 80.6488 176.759 78.6488 176.759 76.101V73.589C176.759 70.5592 176.025 68.3031 174.556 66.7554C173.088 65.2078 170.66 64.428 167.279 64.428H143.564C142.681 64.428 142.237 64.9101 142.237 65.7971V94.5124C142.237 95.1791 142.569 95.5125 143.268 95.5125H148.011C148.674 95.5125 149.005 95.1791 149.005 94.5124V85.6788H163.235L170.222 94.9172C170.37 95.1375 170.518 95.2863 170.66 95.3577C170.808 95.4351 171.069 95.5065 171.471 95.5065H177.132C177.57 95.5065 177.795 95.3577 177.866 95.066C177.902 94.7684 177.866 94.5482 177.718 94.3993L177.713 94.3934ZM169.991 76.3213C169.991 77.6547 169.695 78.6487 169.073 79.3154C168.451 79.9405 167.38 80.2738 165.876 80.2738H149V71.0354C149 70.702 149.183 70.5175 149.55 70.5175H165.876C167.386 70.5175 168.445 70.8508 169.073 71.4759C169.695 72.1426 169.991 73.1366 169.991 74.47V76.3213Z" fill="white"/>
<path d="M231.751 94.4648L217.155 67.815C216.421 66.4816 215.687 65.5946 214.911 65.1184C214.141 64.6779 213.182 64.416 212.08 64.416H209.469C208.551 64.416 207.704 64.672 207.006 65.1184C206.307 65.6006 205.573 66.4875 204.838 67.815L190.39 94.4648C190.242 94.7624 190.207 95.0184 190.284 95.2029C190.361 95.3874 190.58 95.5005 190.947 95.5005H196.685C197.164 95.5005 197.496 95.2803 197.715 94.9112L199.183 92.1373L200.765 89.1789L203.524 84.0418L205.691 79.9761L210.47 71.0294C210.576 70.8448 210.724 70.7317 210.949 70.7317H211.204C211.423 70.7317 211.571 70.8389 211.684 71.0294L215.1 77.3867L218.706 84.0418L221.501 89.1789L223.118 92.1373L224.628 94.9112C224.811 95.2803 225.143 95.5005 225.658 95.5005H231.248C231.58 95.5005 231.799 95.3934 231.87 95.2029C231.947 95.0184 231.905 94.7624 231.763 94.4648H231.751Z" fill="white"/>
<path d="M278.952 71.333C278.436 69.7436 277.625 68.4519 276.524 67.4519C275.458 66.4161 274.06 65.678 272.331 65.1601C270.638 64.678 268.583 64.422 266.191 64.422H245.567C244.684 64.422 244.24 64.9042 244.24 65.7911V94.1731C244.24 95.0601 244.678 95.5065 245.567 95.5065H266.191C268.577 95.5065 270.638 95.2446 272.331 94.7684C274.06 94.2862 275.458 93.5124 276.524 92.5123C277.625 91.4766 278.436 90.1849 278.952 88.5955C279.467 87.0062 279.721 85.1609 279.721 82.9763V76.9522C279.721 74.8093 279.467 72.9223 278.952 71.333ZM272.959 82.4167C272.959 83.7084 272.853 84.7859 272.592 85.6668C272.373 86.5538 271.97 87.2919 271.455 87.8098C270.904 88.3277 270.17 88.7324 269.288 88.9527C268.406 89.2146 267.34 89.3217 266.055 89.3217H251.571C251.204 89.3217 250.985 89.1372 250.985 88.7265V71.208C250.985 70.8032 251.204 70.5829 251.571 70.5829H266.055C267.34 70.5829 268.411 70.7318 269.288 70.952C270.17 71.1723 270.904 71.577 271.455 72.0949C271.97 72.6485 272.373 73.3509 272.592 74.2378C272.847 75.1248 272.959 76.1963 272.959 77.5296V82.4048V82.4167Z" fill="white"/>
<path d="M300.043 64.416H295.264C294.601 64.416 294.27 64.7494 294.27 65.416V94.5005C294.27 95.1672 294.601 95.5005 295.264 95.5005H300.043C300.665 95.5005 300.996 95.1672 300.996 94.5005V65.416C300.996 64.7494 300.665 64.416 300.043 64.416Z" fill="white"/>
<path d="M322.569 73.8807C322.788 73.1068 323.084 72.5116 323.522 72.0294C323.96 71.5889 324.552 71.2556 325.322 71.071C326.056 70.8865 327.016 70.7734 328.153 70.7734H350.251C350.915 70.7734 351.246 70.4401 351.246 69.7734V65.416C351.246 64.7494 350.915 64.416 350.251 64.416H327.898C325.654 64.416 323.777 64.6363 322.202 65.0827C320.656 65.4934 319.371 66.1899 318.376 67.1185C317.423 68.0411 316.683 69.2614 316.245 70.7436C315.765 72.2199 315.546 74.0354 315.546 76.1367V83.7917C315.546 85.899 315.765 87.7086 316.245 89.2265C316.683 90.7027 317.423 91.923 318.376 92.8516C319.371 93.7743 320.656 94.4767 322.202 94.8874C323.783 95.2922 325.66 95.5124 327.898 95.5124H345.727C347.492 95.5124 348.854 94.9945 349.772 93.9647C350.725 92.929 351.205 91.1908 351.205 88.7145V78.363C351.205 77.476 350.767 77.0296 349.878 77.0296H331.457C330.835 77.0296 330.503 77.3629 330.503 78.0653V81.3928C330.503 82.0595 330.835 82.4286 331.457 82.4286H344.401C344.733 82.4286 344.916 82.6131 344.916 82.9822V86.5657C344.916 87.6014 344.733 88.3038 344.401 88.6729C344.034 89.0836 343.483 89.2979 342.707 89.2979H328.147C327.01 89.2979 326.051 89.1908 325.316 89.0003C324.546 88.8157 323.954 88.4824 323.516 88.0002C323.078 87.5597 322.782 86.9288 322.563 86.149C322.379 85.3751 322.308 84.3751 322.308 83.1905V76.7974C322.308 75.6129 322.385 74.6545 322.563 73.8807V73.8688L322.569 73.8807Z" fill="white"/>
<path d="M411.639 64.4994H404.006C403.384 64.4994 402.827 64.5768 402.389 64.6482C401.91 64.7554 401.507 64.9042 401.175 65.1661C400.808 65.422 400.477 65.7554 400.222 66.2018C399.926 66.6066 399.636 67.2019 399.34 67.9043L390.185 89.1908C390.079 89.4468 389.854 89.6015 389.563 89.6015H389.048C388.752 89.6015 388.533 89.4527 388.427 89.1908L379.237 67.9043C378.94 67.2019 378.65 66.6126 378.39 66.2018C378.094 65.7613 377.804 65.428 377.436 65.1661C377.069 64.9101 376.667 64.7554 376.187 64.6482C375.749 64.5708 375.157 64.4994 374.535 64.4994H366.796C366.132 64.4994 365.801 64.8327 365.801 65.4994V94.5839C365.801 95.2505 366.132 95.5839 366.796 95.5839H371.574C372.196 95.5839 372.528 95.2505 372.528 94.5839V71.0234C372.528 71.0234 372.581 71.0056 372.616 71.0056H373.025C373.321 71.0056 373.505 71.1127 373.611 71.3389L382.511 91.2206C382.878 92.0361 383.21 92.6969 383.577 93.2564C383.944 93.7743 384.347 94.2565 384.791 94.5898C385.199 94.9589 385.709 95.2148 386.224 95.3636C386.774 95.5125 387.402 95.5839 388.172 95.5839H390.268C391.002 95.5839 391.63 95.5065 392.181 95.3636C392.731 95.2148 393.211 94.9589 393.649 94.5898C394.087 94.2565 394.46 93.7743 394.828 93.2564C395.195 92.7028 395.562 92.0361 395.929 91.2206L404.829 71.3389C404.935 71.1187 405.125 71.0056 405.415 71.0056H405.782C405.818 71.0056 405.847 71.0175 405.877 71.0234V94.5839C405.877 95.2505 406.209 95.5839 406.872 95.5839H411.65C412.272 95.5839 412.604 95.2505 412.604 94.5839V65.4994C412.604 64.8327 412.272 64.4994 411.65 64.4994H411.639Z" fill="white"/>
<path d="M427.335 69.1993C427.335 71.9142 425.232 74.0414 422.533 74.0414C419.834 74.0414 417.76 71.9142 417.76 69.2287C417.76 66.5432 419.834 64.416 422.562 64.416C425.29 64.416 427.335 66.4903 427.335 69.2052V69.1993ZM426.698 69.1993C426.698 66.8253 424.945 65.0271 422.562 65.0271C420.178 65.0271 418.402 66.8782 418.402 69.2228C418.402 71.5675 420.178 73.4185 422.539 73.4185C424.899 73.4185 426.698 71.5675 426.698 69.1935V69.1993ZM423.853 70.0279L425.086 71.9494H424.151L423.029 70.2042H421.551V71.9494H420.628V66.4962H422.796C424.151 66.4962 424.992 67.219 424.992 68.3473C424.992 69.1758 424.572 69.7693 423.853 70.022V70.0279ZM424.098 68.3531C424.098 67.6597 423.596 67.2719 422.731 67.2719H421.539V69.4403H422.731C423.602 69.4403 424.098 69.0465 424.098 68.3473V68.3531Z" fill="white"/>
</g>
<defs>
<filter id="filter0_d_24420_455" x="35.665" y="58.416" width="401.67" height="51.1678" filterUnits="userSpaceOnUse" color-interpolation-filters="sRGB">
<feFlood flood-opacity="0" result="BackgroundImageFix"/>
<feColorMatrix in="SourceAlpha" type="matrix" values="0 0 0 0 0 0 0 0 0 0 0 0 0 0 0 0 0 0 127 0" result="hardAlpha"/>
<feOffset dy="4"/>
<feGaussianBlur stdDeviation="5"/>
<feComposite in2="hardAlpha" operator="out"/>
<feColorMatrix type="matrix" values="0 0 0 0 0.054902 0 0 0 0 0.0627451 0 0 0 0 0.0784314 0 0 0 0.15 0"/>
<feBlend mode="normal" in2="BackgroundImageFix" result="effect1_dropShadow_24420_455"/>
<feBlend mode="normal" in="SourceGraphic" in2="effect1_dropShadow_24420_455" result="shape"/>
</filter>
</defs>
</svg>
