<svg width="97" height="97" viewBox="0 0 97 97" fill="none" xmlns="http://www.w3.org/2000/svg">
<path d="M5 0.0498047H91.2402C93.9739 0.0499366 96.1904 2.26627 96.1904 5V91.2402C96.1903 93.9739 93.9739 96.1903 91.2402 96.1904H5C2.26627 96.1904 0.0499325 93.9739 0.0498047 91.2402V5C0.0498047 2.26619 2.26619 0.0498047 5 0.0498047Z" fill="#FF9800" stroke="white" stroke-width="0.1"/>
<path d="M71.7293 27.6723C69.4237 25.2672 65.6121 24.0601 60.3036 24.0601H23.1352C21.75 24.0601 21.0527 24.8065 21.0527 26.1795V70.632C21.0527 71.664 21.5734 72.1801 22.6704 72.1801H30.1171C31.1583 72.1801 31.6789 71.664 31.6789 70.632V57.4731H60.3036C65.6121 57.4731 69.4237 56.2752 71.7293 53.8701C74.0349 51.5203 75.1877 47.9726 75.1877 43.3375V38.2417C75.1877 33.5514 74.0349 30.0589 71.7293 27.6631V27.6723ZM64.6266 42.3147C64.6266 44.3788 64.106 45.8624 63.1856 46.8945C62.2095 47.9265 60.5268 48.3781 58.1654 48.3781H31.6789V34.4176C31.6789 33.8462 31.9671 33.5606 32.5435 33.5606H58.1747C60.5453 33.5606 62.2095 34.0766 63.1949 35.0442C64.1153 36.0762 64.6359 37.6151 64.6359 39.6792V42.3147H64.6266Z" fill="white"/>
</svg>
