<svg width="776" height="66" viewBox="0 0 776 66" fill="none" xmlns="http://www.w3.org/2000/svg">
<path fill-rule="evenodd" clip-rule="evenodd" d="M204.618 1.2998C204.958 0.259894 211.259 0.0600491 235.948 0.290039C265.508 0.570039 266.988 0.669922 269.688 2.66992C271.238 3.8199 273.528 6.29993 274.778 8.16992C276.768 11.1499 277.058 12.8201 277.028 21.3301C277.018 27.05 276.458 32.4201 275.678 34.3301C274.958 36.1201 273.038 38.6104 271.428 39.8604C269.818 41.1202 267.718 42.1301 266.758 42.1104C265.788 42.0904 264.998 42.6401 264.988 43.3301C264.968 44.0203 268.118 48.5203 271.988 53.3301C275.848 58.1401 279.008 62.7501 279.008 63.5801C279.008 64.77 277.518 65.0801 264.508 65.1201L257.828 56.3496C254.158 51.5297 250.338 46.7898 249.328 45.8398C247.748 44.3201 245.667 44.1201 219.508 44.5801L218.508 64.5801H204.508L204.358 33.5898C204.278 16.5399 204.398 2.0098 204.618 1.2998ZM218.99 13.0801V33.0801C256.069 33.1501 257.7 32.9994 260.24 31.1094C262.709 29.2896 262.99 28.4696 262.99 23.0801C262.99 18.4103 262.55 16.64 260.99 15.0801C259.13 13.2101 257.659 13.0801 238.99 13.0801H218.99Z" fill="#05182F"/>
<path d="M350.158 0.0800781C355.918 0.0800781 357.368 0.440191 359.288 2.33008C360.548 3.57008 365.778 12.2301 370.908 21.5801C376.028 30.9301 383.098 43.7501 386.608 50.0801C390.118 56.4001 392.988 62.3701 392.998 63.3301C393.008 64.86 392.098 65.0501 378.588 64.5801L364.788 39.0801C357.198 25.0501 350.498 13.5801 349.898 13.5801C349.298 13.5801 343.638 23.2501 337.328 35.0801C331.008 46.9 324.748 58.4901 321.008 65.0801H314.008C310.159 65.0801 306.779 64.63 306.508 64.0801C306.228 63.5301 310.107 55.54 315.127 46.3301C320.147 37.1202 327.457 23.7702 331.377 16.6602C335.297 9.56053 339.587 2.9207 340.908 1.91016C342.698 0.550175 345.058 0.0800912 350.158 0.0800781Z" fill="#05182F"/>
<path d="M645.997 13.0801L618.028 13.3301C590.408 13.5801 590.028 13.6104 587.778 15.8604C585.618 18.0202 585.497 18.881 585.497 47.25L588.247 49.6699C590.958 52.0399 591.288 52.0801 630.997 52.0801L632.058 49.3301C632.638 47.8201 632.977 44.78 632.497 38.5801L602.497 37.5801V26.5801H645.497V59.25L638.997 65.0801L611.747 64.8301C584.708 64.5801 584.468 64.5601 580.198 62.0801C577.118 60.2901 575.188 58.15 573.438 54.5801C571.118 49.8601 570.978 48.61 570.978 32.5801C570.978 16.5102 571.108 15.3 573.448 10.5801C574.958 7.53031 577.198 4.83053 579.207 3.65039C581.017 2.5905 583.627 1.40035 584.997 0.990234C586.377 0.580236 600.668 0.210079 645.997 0.0800781V13.0801Z" fill="#05182F"/>
<path d="M688.247 0.0400391C697.607 3.95887e-05 699.878 0.30009 701.738 1.79004C703.008 2.81004 707.038 10.6901 711.098 20.0801C715.018 29.15 719.677 39.95 721.457 44.0801C723.797 49.5 725.208 51.58 726.528 51.5801C727.938 51.5801 730.038 47.7001 735.718 34.5801C739.768 25.2301 744.528 14.24 746.288 10.1699C748.057 6.09022 750.397 2.15033 751.497 1.41992C752.937 0.459929 756.618 0.150091 775.497 0.580078V64.5801L769.497 64.8301C765.728 64.99 763.017 64.6201 762.207 63.8301C761.218 62.8696 760.917 56.909 760.957 38.3301C760.977 24.9901 760.667 14.0904 760.247 14.1104C759.836 14.1331 757.628 18.2921 755.338 23.3604C753.048 28.4304 748.318 38.8405 744.838 46.4805C740.968 54.9704 737.427 61.3005 735.747 62.7305C733.458 64.6901 731.887 65.0803 726.247 65.0703C720.738 65.0703 719.008 64.6602 716.778 62.8203C714.918 61.2903 710.818 53.3599 703.778 37.6699C698.128 25.08 692.937 14.6099 692.247 14.4199C691.278 14.1615 690.947 19.7161 690.497 64.5801L676.997 65.0801V0.0800781L688.247 0.0400391Z" fill="#05182F"/>
<path d="M133.818 0.0703125C137.758 0.0703125 141.328 0.610391 142.508 1.40039C143.609 2.14131 146.809 6.7608 149.628 11.6602C152.449 16.5704 159.989 30.1403 166.378 41.8301C172.778 53.5194 177.778 63.5292 177.508 64.0801C177.228 64.6301 173.968 65.0803 170.258 65.0703C163.688 65.0703 163.458 64.9801 161.648 61.8203C160.628 60.0403 157.208 53.85 154.058 48.0801C150.898 42.3001 146.608 34.4301 144.528 30.5801C142.448 26.7302 139.398 21.1001 137.758 18.0801C135.178 13.3201 134.588 12.7801 133.438 14.0801C132.698 14.9002 127.728 23.6802 122.398 33.5801C117.068 43.48 111.078 54.6101 105.508 65.04L98.2583 65.0596C92.0084 65.0796 91.0081 64.84 91.018 63.3301C91.028 62.3701 96.728 51.2301 103.688 38.5801C110.638 25.9301 117.648 13.1001 119.258 10.0801C120.858 7.05012 123.288 3.57009 124.648 2.33008C126.698 0.470085 128.288 0.0803152 133.818 0.0703125Z" fill="#05182F"/>
<path fill-rule="evenodd" clip-rule="evenodd" d="M62.6479 0.580078L66.3276 3.08008C68.5576 4.60008 70.6178 7.15008 71.5678 9.58008C72.7378 12.56 73.0578 16.3 72.8178 24.2598C72.5578 33.0497 72.1475 35.4197 70.4975 37.6396C69.3976 39.1196 67.2282 41.2899 65.6782 42.46C63.0082 44.46 61.5475 44.5901 14.9975 45.0801L14.4975 64.5801H0.497526L0.21823 34.5801C0.0682321 18.0803 0.197812 3.55045 0.5278 2.29004L1.10788 0L62.6479 0.580078ZM14.9292 13.0801L15.2094 22.8301L15.4995 32.5801H55.1792C58.8192 28.0601 59.1398 26.4498 58.8598 21.7598C58.5898 17.35 58.0093 15.5802 56.4995 14.4902C54.9195 13.3502 50.3894 13.0496 34.7094 13.0596L14.9292 13.0801Z" fill="#05182F"/>
<path fill-rule="evenodd" clip-rule="evenodd" d="M447.728 0.0703125C468.198 0.0603136 475.678 0.399767 479.508 1.50977C482.258 2.30979 485.738 3.88957 487.258 5.01953C488.768 6.14953 490.998 8.99009 492.198 11.3301C494.078 14.9701 494.458 17.6001 494.788 29.5801C495.028 38.18 494.738 45.3101 494.038 48.0801C493.398 50.5501 491.678 54.3004 490.198 56.4004C488.698 58.5303 485.508 61.1804 483.008 62.4004C478.698 64.4904 477.258 64.5801 420.508 64.5801L420.358 33.5898C420.278 16.5399 420.378 2.02984 420.578 1.33984C420.868 0.369892 427.068 0.0803123 447.728 0.0703125ZM433.95 13.0801L434.49 51.5801C469.008 52.0701 471.959 51.8597 474.979 50.3398C477.569 49.0299 478.76 47.56 479.65 44.5801C480.3 42.3801 480.869 37.32 480.919 33.3301C480.959 29.3401 480.43 23.9696 479.74 21.3896C478.83 17.9698 477.68 16.1996 475.49 14.8896C472.88 13.3196 470.009 13.0901 453.219 13.0801H433.95Z" fill="#05182F"/>
<path d="M539.508 64.5801H526.508L525.978 0.0800781H540.018L539.508 64.5801Z" fill="#05182F"/>
</svg>
