<svg width="643" height="52" viewBox="0 0 643 52" fill="none" xmlns="http://www.w3.org/2000/svg">
<path d="M222.976 50.1347L210.247 34.4286C214.157 33.744 217.016 32.1466 218.756 29.686C220.496 27.2254 221.366 23.8917 221.366 19.6452V15.4582C221.366 10.408 220.126 6.64766 217.646 4.06801C215.167 1.48835 211.067 0.188599 205.358 0.188599H165.312C163.822 0.188599 163.072 0.992261 163.072 2.4706V50.3332C163.072 51.4444 163.632 52 164.812 52H172.821C173.941 52 174.501 51.4444 174.501 50.3332V35.6093H198.528L210.327 51.0078C210.577 51.375 210.827 51.623 211.067 51.7421C211.317 51.871 211.757 51.9901 212.437 51.9901H221.996C222.736 51.9901 223.116 51.7421 223.236 51.2559C223.296 50.7598 223.236 50.3927 222.986 50.1447L222.976 50.1347ZM209.937 20.0123C209.937 22.2347 209.437 23.8917 208.387 25.0029C207.337 26.0447 205.528 26.6003 202.988 26.6003H174.491V11.2018C174.491 10.6461 174.801 10.3386 175.421 10.3386H202.988C205.538 10.3386 207.327 10.8942 208.387 11.936C209.437 13.0472 209.937 14.7041 209.937 16.9266V20.0123Z" fill="#FF9800"/>
<path d="M393.927 11.6978C393.057 9.04864 391.687 6.89562 389.828 5.22876C388.028 3.50238 385.668 2.27208 382.748 1.40889C379.889 0.605225 376.419 0.178589 372.379 0.178589H337.553C336.063 0.178589 335.313 0.982252 335.313 2.46059V49.7675C335.313 51.2459 336.053 51.99 337.553 51.99H372.379C376.409 51.99 379.889 51.5535 382.748 50.7597C385.668 49.9561 388.028 48.6662 389.828 46.9994C391.687 45.273 393.057 43.12 393.927 40.4709C394.797 37.8217 395.227 34.746 395.227 31.1047V21.0639C395.227 17.4921 394.797 14.3469 393.927 11.6978ZM383.808 30.1721C383.808 32.3251 383.628 34.1209 383.188 35.5893C382.818 37.0677 382.138 38.298 381.268 39.1612C380.339 40.0244 379.099 40.6991 377.609 41.0662C376.119 41.5027 374.319 41.6813 372.149 41.6813H347.692C347.072 41.6813 346.702 41.3737 346.702 40.6891V11.5092C346.702 10.8346 347.072 10.4675 347.692 10.4675H372.149C374.319 10.4675 376.129 10.7155 377.609 11.0826C379.099 11.4497 380.339 12.1244 381.268 12.9876C382.138 13.9103 382.818 15.0811 383.188 16.5594C383.618 18.0378 383.808 19.8237 383.808 22.0461V30.1721Z" fill="#FF9800"/>
<path d="M54.5141 4.058C52.0343 1.47834 47.9347 0.178589 42.2254 0.178589H2.23975C0.749908 0.178589 0 0.982252 0 2.46059V50.3232C0 51.4344 0.559929 51.99 1.7398 51.99H9.74894C10.8688 51.99 11.4287 51.4344 11.4287 50.3232V36.1549H42.2154C47.9247 36.1549 52.0243 34.8651 54.5041 32.2755C56.9838 29.7454 58.2236 25.9256 58.2236 20.9349V15.4482C58.2236 10.398 56.9838 6.63765 54.5041 4.058H54.5141ZM46.8749 19.8237C46.8749 22.0461 46.315 23.6435 45.3251 24.7548C44.2752 25.866 42.4654 26.3522 39.9256 26.3522H11.4287V11.3207C11.4287 10.7056 11.7387 10.398 12.3586 10.398H39.9256C42.4754 10.398 44.2652 10.9536 45.3251 11.9954C46.315 13.1066 46.8749 14.7636 46.8749 16.986V19.8237Z" fill="#FF9800"/>
<path d="M467.579 15.9443C467.949 14.6545 468.449 13.6623 469.189 12.8586C469.929 12.1244 470.929 11.5688 472.229 11.2612C473.469 10.9537 475.089 10.7651 477.008 10.7651H514.324C515.444 10.7651 516.004 10.2095 516.004 9.09828V1.83556C516.004 0.72432 515.444 0.168701 514.324 0.168701H476.578C472.789 0.168701 469.619 0.535806 466.959 1.27994C464.35 1.96454 462.18 3.12539 460.5 4.67318C458.89 6.21105 457.641 8.24501 456.901 10.7155C456.091 13.1761 455.721 16.2023 455.721 19.7046V32.464C455.721 35.9763 456.091 38.9925 456.901 41.5226C457.641 43.9832 458.89 46.0171 460.5 47.5649C462.18 49.1028 464.35 50.2736 466.959 50.9582C469.629 51.6329 472.799 52 476.578 52H506.685C509.665 52 511.965 51.1368 513.514 49.4203C515.124 47.6939 515.934 44.7968 515.934 40.6693V23.4154C515.934 21.937 515.194 21.1929 513.694 21.1929H482.588C481.538 21.1929 480.978 21.7485 480.978 22.9193V28.4656C480.978 29.5768 481.538 30.1919 482.588 30.1919H504.445C505.005 30.1919 505.315 30.4995 505.315 31.1147V37.0876C505.315 38.814 505.005 39.9847 504.445 40.5999C503.825 41.2845 502.896 41.6417 501.586 41.6417H476.998C475.079 41.6417 473.459 41.4631 472.219 41.1456C470.919 40.838 469.919 40.2824 469.179 39.4787C468.439 38.7445 467.939 37.6928 467.57 36.393C467.26 35.1032 467.14 33.4364 467.14 31.4619V20.806C467.14 18.8315 467.27 17.2341 467.57 15.9443V15.9245L467.579 15.9443Z" fill="#FF9800"/>
<path d="M429.543 0.178623H421.474C420.354 0.178623 419.794 0.734241 419.794 1.84548V50.3232C419.794 51.4344 420.354 51.99 421.474 51.99H429.543C430.593 51.99 431.153 51.4344 431.153 50.3232V1.83556C431.153 0.72432 430.593 0.168701 429.543 0.168701V0.178623Z" fill="#FF9800"/>
<path d="M314.226 50.2537L289.578 5.83403C288.339 3.61155 287.099 2.13321 285.789 1.33947C284.489 0.605258 282.869 0.168701 281.009 0.168701H276.6C275.05 0.168701 273.62 0.595337 272.44 1.33947C271.26 2.14313 270.021 3.62147 268.781 5.83403L244.383 50.2537C244.133 50.7498 244.073 51.1765 244.203 51.484C244.333 51.7916 244.703 51.9801 245.323 51.9801H255.012C255.822 51.9801 256.382 51.613 256.752 50.9979L259.232 46.3743L261.901 41.4432L266.561 32.8807L270.22 26.1042L278.29 11.1918C278.47 10.8842 278.72 10.6957 279.1 10.6957H279.53C279.899 10.6957 280.15 10.8743 280.34 11.1918L286.109 21.7882L292.198 32.8807L296.918 41.4432L299.647 46.3743L302.197 50.9979C302.507 51.613 303.067 51.9801 303.937 51.9801H313.376C313.936 51.9801 314.306 51.8015 314.426 51.484C314.556 51.1765 314.486 50.7498 314.246 50.2537H314.226Z" fill="#FF9800"/>
<path d="M141.954 50.2537L117.247 5.83402C116.007 3.61155 114.767 2.13321 113.458 1.33947C112.158 0.605258 110.598 0.168701 108.678 0.168701H104.339C102.729 0.168701 101.359 0.595337 100.119 1.33947C98.9392 2.14313 97.7593 3.62147 96.5194 5.83402L72.0621 50.2537C71.8121 50.7498 71.7521 51.1765 71.8821 51.484C72.0121 51.7916 72.3821 51.9801 73.062 51.9801H82.7509C83.4909 51.9801 84.1208 51.613 84.4308 50.9979L86.9105 46.3743L89.5802 41.4432L97.6493 26.6003L105.968 11.2017C106.148 10.8941 106.468 10.7056 106.778 10.7056H107.208C107.578 10.7056 107.828 10.8842 108.078 11.2017L116.217 26.1141L124.596 41.4531L127.326 46.3843L129.876 51.0078C130.186 51.6229 130.746 51.99 131.616 51.99H141.055C141.675 51.99 142.044 51.8115 142.174 51.494C142.304 51.1864 142.234 50.7597 141.994 50.2637H141.984L141.954 50.2537Z" fill="#FF9800"/>
<path d="M617.983 0.00992175H605.094C604.044 0.00992175 603.104 0.138905 602.364 0.257966C601.554 0.436557 600.874 0.684601 600.315 1.12116C599.695 1.54779 599.135 2.10341 598.705 2.84754C598.205 3.52222 597.715 4.5144 597.215 5.68517L581.757 41.1654C581.577 41.592 581.197 41.85 580.707 41.85H579.837C579.337 41.85 578.967 41.6019 578.787 41.1654L563.269 5.68517C562.769 4.5144 562.279 3.53215 561.839 2.84754C561.339 2.11333 560.849 1.55772 560.229 1.12116C559.609 0.694523 558.929 0.436557 558.119 0.257966C557.379 0.128983 556.379 0.00992175 555.329 0.00992175H542.261C541.141 0.00992175 540.581 0.56554 540.581 1.67678V50.1545C540.581 51.2657 541.141 51.8213 542.261 51.8213H550.33C551.38 51.8213 551.94 51.2657 551.94 50.1545V10.8742C551.94 10.8742 552.03 10.8445 552.09 10.8445H552.78C553.28 10.8445 553.59 11.0231 553.77 11.4001L568.798 44.5388C569.418 45.8981 569.978 46.9994 570.598 47.932C571.218 48.7952 571.898 49.5989 572.648 50.1545C573.338 50.7696 574.197 51.1963 575.067 51.4443C575.997 51.6924 577.057 51.8114 578.357 51.8114H581.897C583.136 51.8114 584.196 51.6824 585.126 51.4443C586.056 51.1963 586.866 50.7696 587.606 50.1545C588.346 49.5989 588.976 48.7952 589.596 47.932C590.216 47.0093 590.836 45.8981 591.456 44.5388L606.484 11.4001C606.664 11.033 606.984 10.8445 607.474 10.8445H608.094C608.154 10.8445 608.204 10.8643 608.254 10.8742V50.1446C608.254 51.2558 608.814 51.8114 609.933 51.8114H618.003C619.053 51.8114 619.612 51.2558 619.612 50.1446V1.66686C619.612 0.555618 619.053 0 618.003 0L617.983 0.00992175Z" fill="#FF9800"/>
<path d="M643 8.07631C643 12.6602 639.4 16.2518 634.78 16.2518C630.161 16.2518 626.611 12.6602 626.611 8.12592C626.611 3.59168 630.161 0 634.83 0C639.5 0 643 3.50238 643 8.08623V8.07631ZM641.91 8.07631C641.91 4.06792 638.91 1.03186 634.83 1.03186C630.751 1.03186 627.711 4.15722 627.711 8.116C627.711 12.0748 630.751 15.2001 634.79 15.2001C638.83 15.2001 641.91 12.0748 641.91 8.06639V8.07631ZM637.04 9.47528L639.15 12.7197H637.55L635.63 9.77293H633.101V12.7197H631.521V3.5123H635.23C637.55 3.5123 638.99 4.73268 638.99 6.63766C638.99 8.03662 638.27 9.03872 637.04 9.46536V9.47528ZM637.46 6.64758C637.46 5.47681 636.6 4.82197 635.12 4.82197H633.081V8.4831H635.12C636.61 8.4831 637.46 7.81835 637.46 6.63766V6.64758Z" fill="#FF9800"/>
</svg>
